<svg width="372" height="72" viewBox="0 0 372 72" fill="none" xmlns="http://www.w3.org/2000/svg">
<rect width="372" height="72" rx="8" fill="#252D4A"/>
<g clip-path="url(#clip0_526_74)">
<mask id="mask0_526_74" style="mask-type:luminance" maskUnits="userSpaceOnUse" x="24" y="20" width="32" height="32">
<path d="M24 20H56V52H24V20Z" fill="white"/>
</mask>
<g mask="url(#mask0_526_74)">
<path fill-rule="evenodd" clip-rule="evenodd" d="M40 20C31.16 20 24 27.16 24 36C24 43.08 28.58 49.06 34.94 51.18C35.74 51.32 36.04 50.84 36.04 50.42C36.04 50.04 36.02 48.78 36.02 47.44C32 48.18 30.96 46.46 30.64 45.56C30.46 45.1 29.68 43.68 29 43.3C28.44 43 27.64 42.26 28.98 42.24C30.24 42.22 31.14 43.4 31.44 43.88C32.88 46.3 35.18 45.62 36.1 45.2C36.24 44.16 36.66 43.46 37.12 43.06C33.56 42.66 29.84 41.28 29.84 35.16C29.84 33.42 30.46 31.98 31.48 30.86C31.32 30.46 30.76 28.82 31.64 26.62C31.64 26.62 32.98 26.2 36.04 28.26C37.32 27.9 38.68 27.72 40.04 27.72C41.4 27.72 42.76 27.9 44.04 28.26C47.1 26.18 48.44 26.62 48.44 26.62C49.32 28.82 48.76 30.46 48.6 30.86C49.62 31.98 50.24 33.4 50.24 35.16C50.24 41.3 46.5 42.66 42.94 43.06C43.52 43.56 44.02 44.52 44.02 46.02C44.02 48.16 44 49.88 44 50.42C44 50.84 44.3 51.34 45.1 51.18C48.2762 50.1076 51.0362 48.0662 52.9916 45.3432C54.9469 42.6201 55.999 39.3524 56 36C56 27.16 48.84 20 40 20Z" fill="white"/>
</g>
</g>
<path d="M77.386 41.5V28.81H85.828V30.646H79.6V34.138H85.432V35.974H79.6V39.664H85.828V41.5H77.386ZM87.9102 41.5V32.698H90.1062V34.066C90.4062 33.562 90.8082 33.178 91.3122 32.914C91.8282 32.65 92.4042 32.518 93.0402 32.518C95.1162 32.518 96.1542 33.724 96.1542 36.136V41.5H93.9042V36.244C93.9042 35.56 93.7722 35.062 93.5082 34.75C93.2562 34.438 92.8602 34.282 92.3202 34.282C91.6602 34.282 91.1322 34.492 90.7362 34.912C90.3522 35.32 90.1602 35.866 90.1602 36.55V41.5H87.9102ZM102.472 41.68C100.144 41.68 98.9795 40.528 98.9795 38.224V34.39H97.2875V32.698H98.9795V30.07H101.23V32.698H103.894V34.39H101.23V38.098C101.23 38.674 101.356 39.106 101.608 39.394C101.86 39.682 102.268 39.826 102.832 39.826C103 39.826 103.174 39.808 103.354 39.772C103.534 39.724 103.72 39.676 103.912 39.628L104.254 41.284C104.038 41.404 103.762 41.5 103.426 41.572C103.102 41.644 102.784 41.68 102.472 41.68ZM105.348 41.5V32.698H107.544V34.246C107.976 33.202 108.9 32.626 110.316 32.518L111 32.464L111.144 34.372L109.848 34.498C108.372 34.642 107.634 35.398 107.634 36.766V41.5H105.348ZM115.207 41.68C114.571 41.68 114.001 41.56 113.497 41.32C113.005 41.068 112.615 40.732 112.327 40.312C112.051 39.892 111.913 39.418 111.913 38.89C111.913 38.242 112.081 37.732 112.417 37.36C112.753 36.976 113.299 36.7 114.055 36.532C114.811 36.364 115.825 36.28 117.097 36.28H117.727V35.902C117.727 35.302 117.595 34.87 117.331 34.606C117.067 34.342 116.623 34.21 115.999 34.21C115.507 34.21 115.003 34.288 114.487 34.444C113.971 34.588 113.449 34.816 112.921 35.128L112.273 33.598C112.585 33.382 112.951 33.196 113.371 33.04C113.803 32.872 114.253 32.746 114.721 32.662C115.201 32.566 115.651 32.518 116.071 32.518C117.355 32.518 118.309 32.818 118.933 33.418C119.557 34.006 119.869 34.924 119.869 36.172V41.5H117.763V40.096C117.559 40.588 117.235 40.978 116.791 41.266C116.347 41.542 115.819 41.68 115.207 41.68ZM115.675 40.132C116.263 40.132 116.749 39.928 117.133 39.52C117.529 39.112 117.727 38.596 117.727 37.972V37.576H117.115C115.987 37.576 115.201 37.666 114.757 37.846C114.325 38.014 114.109 38.326 114.109 38.782C114.109 39.178 114.247 39.502 114.523 39.754C114.799 40.006 115.183 40.132 115.675 40.132ZM122.152 41.5V32.698H124.348V34.246C124.78 33.202 125.704 32.626 127.12 32.518L127.804 32.464L127.948 34.372L126.652 34.498C125.176 34.642 124.438 35.398 124.438 36.766V41.5H122.152ZM138.121 41.68C137.197 41.68 136.393 41.494 135.709 41.122C135.025 40.738 134.497 40.198 134.125 39.502C133.753 38.806 133.567 37.99 133.567 37.054C133.567 36.118 133.753 35.314 134.125 34.642C134.497 33.958 135.025 33.436 135.709 33.076C136.393 32.704 137.197 32.518 138.121 32.518C138.685 32.518 139.243 32.608 139.795 32.788C140.347 32.968 140.803 33.22 141.163 33.544L140.497 35.11C140.185 34.834 139.831 34.624 139.435 34.48C139.051 34.336 138.679 34.264 138.319 34.264C137.539 34.264 136.933 34.51 136.501 35.002C136.081 35.482 135.871 36.172 135.871 37.072C135.871 37.96 136.081 38.662 136.501 39.178C136.933 39.682 137.539 39.934 138.319 39.934C138.667 39.934 139.039 39.862 139.435 39.718C139.831 39.574 140.185 39.358 140.497 39.07L141.163 40.654C140.803 40.966 140.341 41.218 139.777 41.41C139.225 41.59 138.673 41.68 138.121 41.68ZM146.381 41.68C145.469 41.68 144.677 41.494 144.005 41.122C143.333 40.75 142.811 40.222 142.439 39.538C142.067 38.842 141.881 38.026 141.881 37.09C141.881 36.154 142.067 35.344 142.439 34.66C142.811 33.976 143.333 33.448 144.005 33.076C144.677 32.704 145.469 32.518 146.381 32.518C147.293 32.518 148.085 32.704 148.757 33.076C149.429 33.448 149.951 33.976 150.323 34.66C150.695 35.344 150.881 36.154 150.881 37.09C150.881 38.026 150.695 38.842 150.323 39.538C149.951 40.222 149.429 40.75 148.757 41.122C148.085 41.494 147.293 41.68 146.381 41.68ZM146.381 39.97C147.053 39.97 147.593 39.73 148.001 39.25C148.409 38.758 148.613 38.038 148.613 37.09C148.613 36.13 148.409 35.416 148.001 34.948C147.593 34.468 147.053 34.228 146.381 34.228C145.709 34.228 145.169 34.468 144.761 34.948C144.353 35.416 144.149 36.13 144.149 37.09C144.149 38.038 144.353 38.758 144.761 39.25C145.169 39.73 145.709 39.97 146.381 39.97ZM152.774 41.5V32.698H154.97V34.048C155.234 33.568 155.6 33.196 156.068 32.932C156.536 32.656 157.076 32.518 157.688 32.518C159.008 32.518 159.872 33.094 160.28 34.246C160.556 33.706 160.952 33.286 161.468 32.986C161.984 32.674 162.572 32.518 163.232 32.518C165.212 32.518 166.202 33.724 166.202 36.136V41.5H163.952V36.226C163.952 35.554 163.838 35.062 163.61 34.75C163.394 34.438 163.022 34.282 162.494 34.282C161.906 34.282 161.444 34.492 161.108 34.912C160.772 35.32 160.604 35.89 160.604 36.622V41.5H158.354V36.226C158.354 35.554 158.24 35.062 158.012 34.75C157.796 34.438 157.43 34.282 156.914 34.282C156.326 34.282 155.864 34.492 155.528 34.912C155.192 35.32 155.024 35.89 155.024 36.622V41.5H152.774ZM179.693 41.68C178.289 41.68 177.101 41.416 176.129 40.888C175.169 40.36 174.437 39.61 173.933 38.638C173.429 37.666 173.177 36.514 173.177 35.182C173.177 33.838 173.435 32.68 173.951 31.708C174.467 30.724 175.211 29.968 176.183 29.44C177.155 28.9 178.319 28.63 179.675 28.63C180.563 28.63 181.397 28.762 182.177 29.026C182.957 29.278 183.605 29.632 184.121 30.088L183.347 31.888C182.783 31.444 182.207 31.126 181.619 30.934C181.031 30.742 180.383 30.646 179.675 30.646C178.331 30.646 177.311 31.036 176.615 31.816C175.931 32.596 175.589 33.718 175.589 35.182C175.589 36.658 175.943 37.78 176.651 38.548C177.359 39.316 178.409 39.7 179.801 39.7C180.197 39.7 180.599 39.67 181.007 39.61C181.427 39.538 181.841 39.436 182.249 39.304V36.352H179.333V34.642H184.175V40.744C183.587 41.032 182.891 41.26 182.087 41.428C181.283 41.596 180.485 41.68 179.693 41.68ZM186.485 30.808V28.612H189.005V30.808H186.485ZM186.629 41.5V32.698H188.879V41.5H186.629ZM195.249 41.68C192.921 41.68 191.757 40.528 191.757 38.224V34.39H190.065V32.698H191.757V30.07H194.007V32.698H196.671V34.39H194.007V38.098C194.007 38.674 194.133 39.106 194.385 39.394C194.637 39.682 195.045 39.826 195.609 39.826C195.777 39.826 195.951 39.808 196.131 39.772C196.311 39.724 196.497 39.676 196.689 39.628L197.031 41.284C196.815 41.404 196.539 41.5 196.203 41.572C195.879 41.644 195.561 41.68 195.249 41.68ZM198.341 41.5V28.81H200.645V34.102H207.179V28.81H209.483V41.5H207.179V36.028H200.645V41.5H198.341ZM215.233 41.68C213.073 41.68 211.993 40.468 211.993 38.044V32.698H214.243V38.08C214.243 38.704 214.369 39.166 214.621 39.466C214.873 39.766 215.275 39.916 215.827 39.916C216.427 39.916 216.919 39.712 217.303 39.304C217.687 38.884 217.879 38.332 217.879 37.648V32.698H220.129V41.5H217.933V40.186C217.345 41.182 216.445 41.68 215.233 41.68ZM227.547 41.68C226.899 41.68 226.317 41.536 225.801 41.248C225.297 40.96 224.919 40.57 224.667 40.078V41.5H222.471V28.81H224.721V33.994C224.985 33.55 225.363 33.196 225.855 32.932C226.359 32.656 226.923 32.518 227.547 32.518C228.327 32.518 229.005 32.704 229.581 33.076C230.157 33.448 230.607 33.976 230.931 34.66C231.255 35.332 231.417 36.142 231.417 37.09C231.417 38.026 231.255 38.842 230.931 39.538C230.607 40.222 230.151 40.75 229.563 41.122C228.987 41.494 228.315 41.68 227.547 41.68ZM226.917 39.97C227.589 39.97 228.129 39.73 228.537 39.25C228.945 38.758 229.149 38.038 229.149 37.09C229.149 36.13 228.945 35.416 228.537 34.948C228.129 34.468 227.589 34.228 226.917 34.228C226.245 34.228 225.705 34.468 225.297 34.948C224.889 35.416 224.685 36.13 224.685 37.09C224.685 38.038 224.889 38.758 225.297 39.25C225.705 39.73 226.245 39.97 226.917 39.97Z" fill="#E6E8F2"/>
<defs>
<clipPath id="clip0_526_74">
<rect width="32" height="32" fill="white" transform="translate(24 20)"/>
</clipPath>
</defs>
</svg>
