<svg width="372" height="72" viewBox="0 0 372 72" fill="none" xmlns="http://www.w3.org/2000/svg">
<rect width="372" height="72" rx="8" fill="#252D4A"/>
<g clip-path="url(#clip0_517_30)">
<path d="M55.2523 36.2994C55.2523 34.9884 55.1459 34.0317 54.9157 33.0396H39.9451V38.9569H48.7325C48.5554 40.4274 47.5987 42.642 45.4726 44.1301L45.4428 44.3282L50.1763 47.9952L50.5042 48.0279C53.516 45.2463 55.2523 41.1537 55.2523 36.2994Z" fill="#4285F4"/>
<path d="M39.9451 51.8901C44.2502 51.8901 47.8643 50.4727 50.5042 48.0279L45.4727 44.1301C44.1262 45.0691 42.3191 45.7246 39.9451 45.7246C35.7285 45.7246 32.1498 42.9432 30.8741 39.0986L30.6871 39.1145L25.7652 42.9236L25.7008 43.1025C28.3229 48.3112 33.7087 51.8901 39.9451 51.8901Z" fill="#34A853"/>
<path d="M30.874 39.0986C30.5374 38.1065 30.3426 37.0434 30.3426 35.945C30.3426 34.8465 30.5374 33.7835 30.8563 32.7914L30.8474 32.5801L25.8638 28.7098L25.7008 28.7874C24.6201 30.9489 24 33.3761 24 35.945C24 38.5139 24.6201 40.941 25.7008 43.1025L30.874 39.0986Z" fill="#FBBC05"/>
<path d="M39.9451 26.1654C42.9392 26.1654 44.9588 27.4587 46.1105 28.5395L50.6105 24.1457C47.8468 21.5768 44.2502 20 39.9451 20C33.7087 20 28.3229 23.5787 25.7008 28.7874L30.8563 32.7915C32.1498 28.9469 35.7285 26.1654 39.9451 26.1654Z" fill="#EB4335"/>
</g>
<path d="M77.386 41.5V28.81H85.828V30.646H79.6V34.138H85.432V35.974H79.6V39.664H85.828V41.5H77.386ZM87.9102 41.5V32.698H90.1062V34.066C90.4062 33.562 90.8082 33.178 91.3122 32.914C91.8282 32.65 92.4042 32.518 93.0402 32.518C95.1162 32.518 96.1542 33.724 96.1542 36.136V41.5H93.9042V36.244C93.9042 35.56 93.7722 35.062 93.5082 34.75C93.2562 34.438 92.8602 34.282 92.3202 34.282C91.6602 34.282 91.1322 34.492 90.7362 34.912C90.3522 35.32 90.1602 35.866 90.1602 36.55V41.5H87.9102ZM102.472 41.68C100.144 41.68 98.9795 40.528 98.9795 38.224V34.39H97.2875V32.698H98.9795V30.07H101.23V32.698H103.894V34.39H101.23V38.098C101.23 38.674 101.356 39.106 101.608 39.394C101.86 39.682 102.268 39.826 102.832 39.826C103 39.826 103.174 39.808 103.354 39.772C103.534 39.724 103.72 39.676 103.912 39.628L104.254 41.284C104.038 41.404 103.762 41.5 103.426 41.572C103.102 41.644 102.784 41.68 102.472 41.68ZM105.348 41.5V32.698H107.544V34.246C107.976 33.202 108.9 32.626 110.316 32.518L111 32.464L111.144 34.372L109.848 34.498C108.372 34.642 107.634 35.398 107.634 36.766V41.5H105.348ZM115.207 41.68C114.571 41.68 114.001 41.56 113.497 41.32C113.005 41.068 112.615 40.732 112.327 40.312C112.051 39.892 111.913 39.418 111.913 38.89C111.913 38.242 112.081 37.732 112.417 37.36C112.753 36.976 113.299 36.7 114.055 36.532C114.811 36.364 115.825 36.28 117.097 36.28H117.727V35.902C117.727 35.302 117.595 34.87 117.331 34.606C117.067 34.342 116.623 34.21 115.999 34.21C115.507 34.21 115.003 34.288 114.487 34.444C113.971 34.588 113.449 34.816 112.921 35.128L112.273 33.598C112.585 33.382 112.951 33.196 113.371 33.04C113.803 32.872 114.253 32.746 114.721 32.662C115.201 32.566 115.651 32.518 116.071 32.518C117.355 32.518 118.309 32.818 118.933 33.418C119.557 34.006 119.869 34.924 119.869 36.172V41.5H117.763V40.096C117.559 40.588 117.235 40.978 116.791 41.266C116.347 41.542 115.819 41.68 115.207 41.68ZM115.675 40.132C116.263 40.132 116.749 39.928 117.133 39.52C117.529 39.112 117.727 38.596 117.727 37.972V37.576H117.115C115.987 37.576 115.201 37.666 114.757 37.846C114.325 38.014 114.109 38.326 114.109 38.782C114.109 39.178 114.247 39.502 114.523 39.754C114.799 40.006 115.183 40.132 115.675 40.132ZM122.152 41.5V32.698H124.348V34.246C124.78 33.202 125.704 32.626 127.12 32.518L127.804 32.464L127.948 34.372L126.652 34.498C125.176 34.642 124.438 35.398 124.438 36.766V41.5H122.152ZM138.121 41.68C137.197 41.68 136.393 41.494 135.709 41.122C135.025 40.738 134.497 40.198 134.125 39.502C133.753 38.806 133.567 37.99 133.567 37.054C133.567 36.118 133.753 35.314 134.125 34.642C134.497 33.958 135.025 33.436 135.709 33.076C136.393 32.704 137.197 32.518 138.121 32.518C138.685 32.518 139.243 32.608 139.795 32.788C140.347 32.968 140.803 33.22 141.163 33.544L140.497 35.11C140.185 34.834 139.831 34.624 139.435 34.48C139.051 34.336 138.679 34.264 138.319 34.264C137.539 34.264 136.933 34.51 136.501 35.002C136.081 35.482 135.871 36.172 135.871 37.072C135.871 37.96 136.081 38.662 136.501 39.178C136.933 39.682 137.539 39.934 138.319 39.934C138.667 39.934 139.039 39.862 139.435 39.718C139.831 39.574 140.185 39.358 140.497 39.07L141.163 40.654C140.803 40.966 140.341 41.218 139.777 41.41C139.225 41.59 138.673 41.68 138.121 41.68ZM146.381 41.68C145.469 41.68 144.677 41.494 144.005 41.122C143.333 40.75 142.811 40.222 142.439 39.538C142.067 38.842 141.881 38.026 141.881 37.09C141.881 36.154 142.067 35.344 142.439 34.66C142.811 33.976 143.333 33.448 144.005 33.076C144.677 32.704 145.469 32.518 146.381 32.518C147.293 32.518 148.085 32.704 148.757 33.076C149.429 33.448 149.951 33.976 150.323 34.66C150.695 35.344 150.881 36.154 150.881 37.09C150.881 38.026 150.695 38.842 150.323 39.538C149.951 40.222 149.429 40.75 148.757 41.122C148.085 41.494 147.293 41.68 146.381 41.68ZM146.381 39.97C147.053 39.97 147.593 39.73 148.001 39.25C148.409 38.758 148.613 38.038 148.613 37.09C148.613 36.13 148.409 35.416 148.001 34.948C147.593 34.468 147.053 34.228 146.381 34.228C145.709 34.228 145.169 34.468 144.761 34.948C144.353 35.416 144.149 36.13 144.149 37.09C144.149 38.038 144.353 38.758 144.761 39.25C145.169 39.73 145.709 39.97 146.381 39.97ZM152.774 41.5V32.698H154.97V34.048C155.234 33.568 155.6 33.196 156.068 32.932C156.536 32.656 157.076 32.518 157.688 32.518C159.008 32.518 159.872 33.094 160.28 34.246C160.556 33.706 160.952 33.286 161.468 32.986C161.984 32.674 162.572 32.518 163.232 32.518C165.212 32.518 166.202 33.724 166.202 36.136V41.5H163.952V36.226C163.952 35.554 163.838 35.062 163.61 34.75C163.394 34.438 163.022 34.282 162.494 34.282C161.906 34.282 161.444 34.492 161.108 34.912C160.772 35.32 160.604 35.89 160.604 36.622V41.5H158.354V36.226C158.354 35.554 158.24 35.062 158.012 34.75C157.796 34.438 157.43 34.282 156.914 34.282C156.326 34.282 155.864 34.492 155.528 34.912C155.192 35.32 155.024 35.89 155.024 36.622V41.5H152.774ZM179.693 41.68C178.289 41.68 177.101 41.416 176.129 40.888C175.169 40.36 174.437 39.61 173.933 38.638C173.429 37.666 173.177 36.514 173.177 35.182C173.177 33.838 173.435 32.68 173.951 31.708C174.467 30.724 175.211 29.968 176.183 29.44C177.155 28.9 178.319 28.63 179.675 28.63C180.563 28.63 181.397 28.762 182.177 29.026C182.957 29.278 183.605 29.632 184.121 30.088L183.347 31.888C182.783 31.444 182.207 31.126 181.619 30.934C181.031 30.742 180.383 30.646 179.675 30.646C178.331 30.646 177.311 31.036 176.615 31.816C175.931 32.596 175.589 33.718 175.589 35.182C175.589 36.658 175.943 37.78 176.651 38.548C177.359 39.316 178.409 39.7 179.801 39.7C180.197 39.7 180.599 39.67 181.007 39.61C181.427 39.538 181.841 39.436 182.249 39.304V36.352H179.333V34.642H184.175V40.744C183.587 41.032 182.891 41.26 182.087 41.428C181.283 41.596 180.485 41.68 179.693 41.68ZM190.643 41.68C189.731 41.68 188.939 41.494 188.267 41.122C187.595 40.75 187.073 40.222 186.701 39.538C186.329 38.842 186.143 38.026 186.143 37.09C186.143 36.154 186.329 35.344 186.701 34.66C187.073 33.976 187.595 33.448 188.267 33.076C188.939 32.704 189.731 32.518 190.643 32.518C191.555 32.518 192.347 32.704 193.019 33.076C193.691 33.448 194.213 33.976 194.585 34.66C194.957 35.344 195.143 36.154 195.143 37.09C195.143 38.026 194.957 38.842 194.585 39.538C194.213 40.222 193.691 40.75 193.019 41.122C192.347 41.494 191.555 41.68 190.643 41.68ZM190.643 39.97C191.315 39.97 191.855 39.73 192.263 39.25C192.671 38.758 192.875 38.038 192.875 37.09C192.875 36.13 192.671 35.416 192.263 34.948C191.855 34.468 191.315 34.228 190.643 34.228C189.971 34.228 189.431 34.468 189.023 34.948C188.615 35.416 188.411 36.13 188.411 37.09C188.411 38.038 188.615 38.758 189.023 39.25C189.431 39.73 189.971 39.97 190.643 39.97ZM201.014 41.68C200.102 41.68 199.31 41.494 198.638 41.122C197.966 40.75 197.444 40.222 197.072 39.538C196.7 38.842 196.514 38.026 196.514 37.09C196.514 36.154 196.7 35.344 197.072 34.66C197.444 33.976 197.966 33.448 198.638 33.076C199.31 32.704 200.102 32.518 201.014 32.518C201.926 32.518 202.718 32.704 203.39 33.076C204.062 33.448 204.584 33.976 204.956 34.66C205.328 35.344 205.514 36.154 205.514 37.09C205.514 38.026 205.328 38.842 204.956 39.538C204.584 40.222 204.062 40.75 203.39 41.122C202.718 41.494 201.926 41.68 201.014 41.68ZM201.014 39.97C201.686 39.97 202.226 39.73 202.634 39.25C203.042 38.758 203.246 38.038 203.246 37.09C203.246 36.13 203.042 35.416 202.634 34.948C202.226 34.468 201.686 34.228 201.014 34.228C200.342 34.228 199.802 34.468 199.394 34.948C198.986 35.416 198.782 36.13 198.782 37.09C198.782 38.038 198.986 38.758 199.394 39.25C199.802 39.73 200.342 39.97 201.014 39.97ZM211.475 44.92C210.659 44.92 209.891 44.824 209.171 44.632C208.463 44.452 207.839 44.17 207.299 43.786L207.947 42.22C208.451 42.556 208.991 42.802 209.567 42.958C210.143 43.126 210.719 43.21 211.295 43.21C212.903 43.21 213.707 42.436 213.707 40.888V39.682C213.455 40.174 213.065 40.564 212.537 40.852C212.021 41.14 211.445 41.284 210.809 41.284C210.017 41.284 209.327 41.104 208.739 40.744C208.151 40.372 207.695 39.856 207.371 39.196C207.047 38.536 206.885 37.768 206.885 36.892C206.885 36.016 207.047 35.254 207.371 34.606C207.695 33.946 208.151 33.436 208.739 33.076C209.327 32.704 210.017 32.518 210.809 32.518C211.469 32.518 212.057 32.668 212.573 32.968C213.089 33.256 213.467 33.646 213.707 34.138V32.698H215.903V40.618C215.903 42.046 215.525 43.12 214.769 43.84C214.013 44.56 212.915 44.92 211.475 44.92ZM211.421 39.574C212.117 39.574 212.669 39.334 213.077 38.854C213.485 38.374 213.689 37.72 213.689 36.892C213.689 36.064 213.485 35.416 213.077 34.948C212.669 34.468 212.117 34.228 211.421 34.228C210.725 34.228 210.173 34.468 209.765 34.948C209.357 35.416 209.153 36.064 209.153 36.892C209.153 37.72 209.357 38.374 209.765 38.854C210.173 39.334 210.725 39.574 211.421 39.574ZM221.294 41.68C220.25 41.68 219.476 41.398 218.972 40.834C218.48 40.258 218.234 39.418 218.234 38.314V28.81H220.484V38.206C220.484 39.286 220.94 39.826 221.852 39.826C221.984 39.826 222.116 39.82 222.248 39.808C222.38 39.796 222.506 39.772 222.626 39.736L222.59 41.518C222.158 41.626 221.726 41.68 221.294 41.68ZM228.233 41.68C227.237 41.68 226.379 41.494 225.659 41.122C224.939 40.75 224.381 40.222 223.985 39.538C223.601 38.854 223.409 38.044 223.409 37.108C223.409 36.196 223.595 35.398 223.967 34.714C224.351 34.03 224.873 33.496 225.533 33.112C226.205 32.716 226.967 32.518 227.819 32.518C229.067 32.518 230.051 32.914 230.771 33.706C231.503 34.498 231.869 35.578 231.869 36.946V37.612H225.569C225.737 39.184 226.637 39.97 228.269 39.97C228.761 39.97 229.253 39.898 229.745 39.754C230.237 39.598 230.687 39.358 231.095 39.034L231.725 40.546C231.305 40.894 230.777 41.17 230.141 41.374C229.505 41.578 228.869 41.68 228.233 41.68ZM227.909 34.048C227.249 34.048 226.715 34.252 226.307 34.66C225.899 35.068 225.653 35.62 225.569 36.316H229.997C229.949 35.584 229.745 35.026 229.385 34.642C229.037 34.246 228.545 34.048 227.909 34.048Z" fill="#E6E8F2"/>
<defs>
<clipPath id="clip0_517_30">
<rect width="32" height="32" fill="white" transform="translate(24 20)"/>
</clipPath>
</defs>
</svg>
