<svg width="372" height="72" viewBox="0 0 372 72" fill="none" xmlns="http://www.w3.org/2000/svg">
<rect width="372" height="72" rx="8" fill="#252D4A"/>
<path fill-rule="evenodd" clip-rule="evenodd" d="M33.1451 40.3758C33.347 40.9731 33.0239 41.6201 32.4235 41.8209C30.4791 42.4713 29.4458 44.0947 28.8931 45.7457C28.6736 46.4012 28.541 47.0323 28.4613 47.5541C28.986 47.4749 29.6205 47.343 30.2795 47.1247C31.9393 46.5749 33.5715 45.5471 34.2254 43.6132C34.4273 43.016 35.0778 42.6946 35.6782 42.8954C36.2787 43.0963 36.6017 43.7433 36.3998 44.3405C35.4191 47.2412 32.9936 48.6308 31.0044 49.2897C29.9994 49.6225 29.0587 49.7868 28.372 49.8688C28.027 49.9099 27.7418 49.9308 27.5392 49.9414C27.4377 49.9467 27.3567 49.9495 27.2988 49.9509C27.2699 49.9516 27.2467 49.952 27.2297 49.9522L27.2087 49.9524L27.2018 49.9524L27.1992 49.9524L27.1981 49.9524C27.1977 49.9524 27.1972 49.9524 27.1972 48.8115C26.0502 48.8115 26.0502 48.8111 26.0502 48.8106L26.0502 48.8095L26.0502 48.807L26.0502 48.8001L26.0504 48.7792C26.0506 48.7623 26.051 48.7392 26.0517 48.7104C26.0531 48.6529 26.0559 48.5723 26.0612 48.4714C26.0719 48.2698 26.0929 47.9862 26.1343 47.643C26.2167 46.96 26.3819 46.0243 26.7165 45.0247C27.3789 43.0461 28.7759 40.6335 31.6922 39.6581C32.2927 39.4572 32.9431 39.7786 33.1451 40.3758ZM27.1972 48.8115H26.0502C26.0502 49.4416 26.5637 49.9524 27.1972 49.9524V48.8115Z" fill="#8381D9"/>
<path fill-rule="evenodd" clip-rule="evenodd" d="M52.1873 23.9548C50.8559 23.7638 47.5787 23.6919 44.2247 27.028L35.3002 35.9048L40.1732 40.7517L49.0977 31.8749C52.4517 28.5388 52.3794 25.2791 52.1873 23.9548ZM52.52 21.6971C50.6889 21.4334 46.6073 21.4311 42.6025 25.4145L32.867 35.098C32.6519 35.312 32.531 35.6022 32.531 35.9048C32.531 36.2074 32.6519 36.4976 32.867 36.7115L39.3621 43.172C39.8101 43.6175 40.5364 43.6175 40.9843 43.172L50.7199 33.4884C54.7246 29.5051 54.7223 25.4453 54.4572 23.624C54.3901 23.1365 54.1645 22.6842 53.8146 22.3363C53.4648 21.9883 53.01 21.7638 52.52 21.6971Z" fill="#8381D9"/>
<path fill-rule="evenodd" clip-rule="evenodd" d="M48.2885 33.1521C48.922 33.1521 49.4356 33.6629 49.4356 34.293V43.506L49.4355 43.5222C49.4269 44.1215 49.1816 44.6932 48.7528 45.114L44.1238 49.7325C43.83 50.0245 43.4619 50.2316 43.059 50.3318C42.6561 50.432 42.2333 50.4215 41.8359 50.3015C41.4385 50.1814 41.0813 49.9563 40.8025 49.6502C40.5238 49.3442 40.3338 48.9689 40.2527 48.564C40.2526 48.5637 40.2528 48.5643 40.2527 48.564L39.0485 42.5893C38.924 41.9715 39.3265 41.3702 39.9477 41.2464C40.5688 41.1225 41.1733 41.5229 41.2978 42.1408L42.5026 48.1181L47.1415 43.4897V34.293C47.1415 33.6629 47.655 33.1521 48.2885 33.1521Z" fill="#8381D9"/>
<path fill-rule="evenodd" clip-rule="evenodd" d="M32.5147 26.6919L32.531 26.6918H41.7934C42.4269 26.6918 42.9405 27.2026 42.9405 27.8327C42.9405 28.4628 42.4269 28.9736 41.7934 28.9736H32.5472L32.538 28.983L32.5379 28.983L27.8941 33.5877L27.8959 33.5881L33.9035 34.786C34.5247 34.9099 34.9272 35.5111 34.8027 36.129C34.6782 36.7468 34.0737 37.1472 33.4526 37.0234L27.4467 35.8258C27.4463 35.8257 27.446 35.8256 27.4457 35.8255C27.0387 35.7449 26.6613 35.5559 26.3538 35.2788C26.046 35.0014 25.8197 34.6461 25.699 34.2508C25.5783 33.8555 25.5677 33.4351 25.6685 33.0343C25.7692 32.6335 25.9774 32.2674 26.271 31.9751L26.2727 31.9734L26.2727 31.9734L30.9143 27.3709C31.3374 26.9444 31.9122 26.7004 32.5147 26.6919Z" fill="#8381D9"/>
<path d="M76.018 41.5L81.76 28.81H83.65L89.392 41.5H87.052L85.792 38.566H79.6L78.358 41.5H76.018ZM82.678 31.312L80.392 36.73H85L82.714 31.312H82.678ZM94.5446 41.68C93.6206 41.68 92.8166 41.494 92.1326 41.122C91.4486 40.738 90.9206 40.198 90.5486 39.502C90.1766 38.806 89.9906 37.99 89.9906 37.054C89.9906 36.118 90.1766 35.314 90.5486 34.642C90.9206 33.958 91.4486 33.436 92.1326 33.076C92.8166 32.704 93.6206 32.518 94.5446 32.518C95.1086 32.518 95.6666 32.608 96.2186 32.788C96.7706 32.968 97.2266 33.22 97.5866 33.544L96.9206 35.11C96.6086 34.834 96.2546 34.624 95.8586 34.48C95.4746 34.336 95.1026 34.264 94.7426 34.264C93.9626 34.264 93.3566 34.51 92.9246 35.002C92.5046 35.482 92.2946 36.172 92.2946 37.072C92.2946 37.96 92.5046 38.662 92.9246 39.178C93.3566 39.682 93.9626 39.934 94.7426 39.934C95.0906 39.934 95.4626 39.862 95.8586 39.718C96.2546 39.574 96.6086 39.358 96.9206 39.07L97.5866 40.654C97.2266 40.966 96.7646 41.218 96.2006 41.41C95.6486 41.59 95.0966 41.68 94.5446 41.68ZM103.129 41.68C102.133 41.68 101.275 41.494 100.555 41.122C99.8351 40.75 99.2771 40.222 98.8811 39.538C98.4971 38.854 98.3051 38.044 98.3051 37.108C98.3051 36.196 98.4911 35.398 98.8631 34.714C99.2471 34.03 99.7691 33.496 100.429 33.112C101.101 32.716 101.863 32.518 102.715 32.518C103.963 32.518 104.947 32.914 105.667 33.706C106.399 34.498 106.765 35.578 106.765 36.946V37.612H100.465C100.633 39.184 101.533 39.97 103.165 39.97C103.657 39.97 104.149 39.898 104.641 39.754C105.133 39.598 105.583 39.358 105.991 39.034L106.621 40.546C106.201 40.894 105.673 41.17 105.037 41.374C104.401 41.578 103.765 41.68 103.129 41.68ZM102.805 34.048C102.145 34.048 101.611 34.252 101.203 34.66C100.795 35.068 100.549 35.62 100.465 36.316H104.893C104.845 35.584 104.641 35.026 104.281 34.642C103.933 34.246 103.441 34.048 102.805 34.048ZM111.769 41.68C111.025 41.68 110.329 41.59 109.681 41.41C109.033 41.23 108.493 40.972 108.061 40.636L108.637 39.16C109.081 39.46 109.579 39.694 110.131 39.862C110.683 40.018 111.235 40.096 111.787 40.096C112.363 40.096 112.789 40 113.065 39.808C113.353 39.604 113.497 39.34 113.497 39.016C113.497 38.512 113.125 38.188 112.381 38.044L110.581 37.702C109.057 37.414 108.295 36.622 108.295 35.326C108.295 34.75 108.451 34.252 108.763 33.832C109.087 33.412 109.531 33.088 110.095 32.86C110.659 32.632 111.307 32.518 112.039 32.518C112.663 32.518 113.263 32.608 113.839 32.788C114.415 32.956 114.907 33.214 115.315 33.562L114.703 35.038C114.355 34.75 113.935 34.522 113.443 34.354C112.963 34.186 112.501 34.102 112.057 34.102C111.469 34.102 111.031 34.204 110.743 34.408C110.467 34.612 110.329 34.882 110.329 35.218C110.329 35.746 110.671 36.07 111.355 36.19L113.155 36.532C113.935 36.676 114.523 36.94 114.919 37.324C115.327 37.708 115.531 38.224 115.531 38.872C115.531 39.748 115.189 40.438 114.505 40.942C113.821 41.434 112.909 41.68 111.769 41.68ZM120.558 41.68C119.814 41.68 119.118 41.59 118.47 41.41C117.822 41.23 117.282 40.972 116.85 40.636L117.426 39.16C117.87 39.46 118.368 39.694 118.92 39.862C119.472 40.018 120.024 40.096 120.576 40.096C121.152 40.096 121.578 40 121.854 39.808C122.142 39.604 122.286 39.34 122.286 39.016C122.286 38.512 121.914 38.188 121.17 38.044L119.37 37.702C117.846 37.414 117.084 36.622 117.084 35.326C117.084 34.75 117.24 34.252 117.552 33.832C117.876 33.412 118.32 33.088 118.884 32.86C119.448 32.632 120.096 32.518 120.828 32.518C121.452 32.518 122.052 32.608 122.628 32.788C123.204 32.956 123.696 33.214 124.104 33.562L123.492 35.038C123.144 34.75 122.724 34.522 122.232 34.354C121.752 34.186 121.29 34.102 120.846 34.102C120.258 34.102 119.82 34.204 119.532 34.408C119.256 34.612 119.118 34.882 119.118 35.218C119.118 35.746 119.46 36.07 120.144 36.19L121.944 36.532C122.724 36.676 123.312 36.94 123.708 37.324C124.116 37.708 124.32 38.224 124.32 38.872C124.32 39.748 123.978 40.438 123.294 40.942C122.61 41.434 121.698 41.68 120.558 41.68ZM129.023 41.68C128.387 41.68 127.817 41.56 127.313 41.32C126.821 41.068 126.431 40.732 126.143 40.312C125.867 39.892 125.729 39.418 125.729 38.89C125.729 38.242 125.897 37.732 126.233 37.36C126.569 36.976 127.115 36.7 127.871 36.532C128.627 36.364 129.641 36.28 130.913 36.28H131.543V35.902C131.543 35.302 131.411 34.87 131.147 34.606C130.883 34.342 130.439 34.21 129.815 34.21C129.323 34.21 128.819 34.288 128.303 34.444C127.787 34.588 127.265 34.816 126.737 35.128L126.089 33.598C126.401 33.382 126.767 33.196 127.187 33.04C127.619 32.872 128.069 32.746 128.537 32.662C129.017 32.566 129.467 32.518 129.887 32.518C131.171 32.518 132.125 32.818 132.749 33.418C133.373 34.006 133.685 34.924 133.685 36.172V41.5H131.579V40.096C131.375 40.588 131.051 40.978 130.607 41.266C130.163 41.542 129.635 41.68 129.023 41.68ZM129.491 40.132C130.079 40.132 130.565 39.928 130.949 39.52C131.345 39.112 131.543 38.596 131.543 37.972V37.576H130.931C129.803 37.576 129.017 37.666 128.573 37.846C128.141 38.014 127.925 38.326 127.925 38.782C127.925 39.178 128.063 39.502 128.339 39.754C128.615 40.006 128.999 40.132 129.491 40.132ZM135.969 41.5V32.698H138.165V34.246C138.597 33.202 139.521 32.626 140.937 32.518L141.621 32.464L141.765 34.372L140.469 34.498C138.993 34.642 138.255 35.398 138.255 36.766V41.5H135.969ZM151.937 41.68C151.013 41.68 150.209 41.494 149.525 41.122C148.841 40.738 148.313 40.198 147.941 39.502C147.569 38.806 147.383 37.99 147.383 37.054C147.383 36.118 147.569 35.314 147.941 34.642C148.313 33.958 148.841 33.436 149.525 33.076C150.209 32.704 151.013 32.518 151.937 32.518C152.501 32.518 153.059 32.608 153.611 32.788C154.163 32.968 154.619 33.22 154.979 33.544L154.313 35.11C154.001 34.834 153.647 34.624 153.251 34.48C152.867 34.336 152.495 34.264 152.135 34.264C151.355 34.264 150.749 34.51 150.317 35.002C149.897 35.482 149.687 36.172 149.687 37.072C149.687 37.96 149.897 38.662 150.317 39.178C150.749 39.682 151.355 39.934 152.135 39.934C152.483 39.934 152.855 39.862 153.251 39.718C153.647 39.574 154.001 39.358 154.313 39.07L154.979 40.654C154.619 40.966 154.157 41.218 153.593 41.41C153.041 41.59 152.489 41.68 151.937 41.68ZM160.198 41.68C159.286 41.68 158.494 41.494 157.822 41.122C157.15 40.75 156.628 40.222 156.256 39.538C155.884 38.842 155.698 38.026 155.698 37.09C155.698 36.154 155.884 35.344 156.256 34.66C156.628 33.976 157.15 33.448 157.822 33.076C158.494 32.704 159.286 32.518 160.198 32.518C161.11 32.518 161.902 32.704 162.574 33.076C163.246 33.448 163.768 33.976 164.14 34.66C164.512 35.344 164.698 36.154 164.698 37.09C164.698 38.026 164.512 38.842 164.14 39.538C163.768 40.222 163.246 40.75 162.574 41.122C161.902 41.494 161.11 41.68 160.198 41.68ZM160.198 39.97C160.87 39.97 161.41 39.73 161.818 39.25C162.226 38.758 162.43 38.038 162.43 37.09C162.43 36.13 162.226 35.416 161.818 34.948C161.41 34.468 160.87 34.228 160.198 34.228C159.526 34.228 158.986 34.468 158.578 34.948C158.17 35.416 157.966 36.13 157.966 37.09C157.966 38.038 158.17 38.758 158.578 39.25C158.986 39.73 159.526 39.97 160.198 39.97ZM166.591 41.5V32.698H168.787V34.048C169.051 33.568 169.417 33.196 169.885 32.932C170.353 32.656 170.893 32.518 171.505 32.518C172.825 32.518 173.689 33.094 174.097 34.246C174.373 33.706 174.769 33.286 175.285 32.986C175.801 32.674 176.389 32.518 177.049 32.518C179.029 32.518 180.019 33.724 180.019 36.136V41.5H177.769V36.226C177.769 35.554 177.655 35.062 177.427 34.75C177.211 34.438 176.839 34.282 176.311 34.282C175.723 34.282 175.261 34.492 174.925 34.912C174.589 35.32 174.421 35.89 174.421 36.622V41.5H172.171V36.226C172.171 35.554 172.057 35.062 171.829 34.75C171.613 34.438 171.247 34.282 170.731 34.282C170.143 34.282 169.681 34.492 169.345 34.912C169.009 35.32 168.841 35.89 168.841 36.622V41.5H166.591ZM186.354 41.68C185.442 41.68 184.65 41.494 183.978 41.122C183.306 40.75 182.784 40.222 182.412 39.538C182.04 38.842 181.854 38.026 181.854 37.09C181.854 36.154 182.04 35.344 182.412 34.66C182.784 33.976 183.306 33.448 183.978 33.076C184.65 32.704 185.442 32.518 186.354 32.518C187.266 32.518 188.058 32.704 188.73 33.076C189.402 33.448 189.924 33.976 190.296 34.66C190.668 35.344 190.854 36.154 190.854 37.09C190.854 38.026 190.668 38.842 190.296 39.538C189.924 40.222 189.402 40.75 188.73 41.122C188.058 41.494 187.266 41.68 186.354 41.68ZM186.354 39.97C187.026 39.97 187.566 39.73 187.974 39.25C188.382 38.758 188.586 38.038 188.586 37.09C188.586 36.13 188.382 35.416 187.974 34.948C187.566 34.468 187.026 34.228 186.354 34.228C185.682 34.228 185.142 34.468 184.734 34.948C184.326 35.416 184.122 36.13 184.122 37.09C184.122 38.038 184.326 38.758 184.734 39.25C185.142 39.73 185.682 39.97 186.354 39.97ZM200.155 41.5L196.339 32.698H198.733L201.181 38.854L203.719 32.698H205.969L202.099 41.5H200.155ZM206.911 30.808V28.612H209.431V30.808H206.911ZM207.055 41.5V32.698H209.305V41.5H207.055ZM214.865 41.68C214.121 41.68 213.425 41.59 212.777 41.41C212.129 41.23 211.589 40.972 211.157 40.636L211.733 39.16C212.177 39.46 212.675 39.694 213.227 39.862C213.779 40.018 214.331 40.096 214.883 40.096C215.459 40.096 215.885 40 216.161 39.808C216.449 39.604 216.593 39.34 216.593 39.016C216.593 38.512 216.221 38.188 215.477 38.044L213.677 37.702C212.153 37.414 211.391 36.622 211.391 35.326C211.391 34.75 211.547 34.252 211.859 33.832C212.183 33.412 212.627 33.088 213.191 32.86C213.755 32.632 214.403 32.518 215.135 32.518C215.759 32.518 216.359 32.608 216.935 32.788C217.511 32.956 218.003 33.214 218.411 33.562L217.799 35.038C217.451 34.75 217.031 34.522 216.539 34.354C216.059 34.186 215.597 34.102 215.153 34.102C214.565 34.102 214.127 34.204 213.839 34.408C213.563 34.612 213.425 34.882 213.425 35.218C213.425 35.746 213.767 36.07 214.451 36.19L216.251 36.532C217.031 36.676 217.619 36.94 218.015 37.324C218.423 37.708 218.627 38.224 218.627 38.872C218.627 39.748 218.285 40.438 217.601 40.942C216.917 41.434 216.005 41.68 214.865 41.68ZM220.288 30.808V28.612H222.808V30.808H220.288ZM220.432 41.5V32.698H222.682V41.5H220.432ZM229.052 41.68C226.724 41.68 225.56 40.528 225.56 38.224V34.39H223.868V32.698H225.56V30.07H227.81V32.698H230.474V34.39H227.81V38.098C227.81 38.674 227.936 39.106 228.188 39.394C228.44 39.682 228.848 39.826 229.412 39.826C229.58 39.826 229.754 39.808 229.934 39.772C230.114 39.724 230.3 39.676 230.492 39.628L230.834 41.284C230.618 41.404 230.342 41.5 230.006 41.572C229.682 41.644 229.364 41.68 229.052 41.68ZM234.826 41.68C234.19 41.68 233.62 41.56 233.116 41.32C232.624 41.068 232.234 40.732 231.946 40.312C231.67 39.892 231.532 39.418 231.532 38.89C231.532 38.242 231.7 37.732 232.036 37.36C232.372 36.976 232.918 36.7 233.674 36.532C234.43 36.364 235.444 36.28 236.716 36.28H237.346V35.902C237.346 35.302 237.214 34.87 236.95 34.606C236.686 34.342 236.242 34.21 235.618 34.21C235.126 34.21 234.622 34.288 234.106 34.444C233.59 34.588 233.068 34.816 232.54 35.128L231.892 33.598C232.204 33.382 232.57 33.196 232.99 33.04C233.422 32.872 233.872 32.746 234.34 32.662C234.82 32.566 235.27 32.518 235.69 32.518C236.974 32.518 237.928 32.818 238.552 33.418C239.176 34.006 239.488 34.924 239.488 36.172V41.5H237.382V40.096C237.178 40.588 236.854 40.978 236.41 41.266C235.966 41.542 235.438 41.68 234.826 41.68ZM235.294 40.132C235.882 40.132 236.368 39.928 236.752 39.52C237.148 39.112 237.346 38.596 237.346 37.972V37.576H236.734C235.606 37.576 234.82 37.666 234.376 37.846C233.944 38.014 233.728 38.326 233.728 38.782C233.728 39.178 233.866 39.502 234.142 39.754C234.418 40.006 234.802 40.132 235.294 40.132ZM241.772 41.5V32.698H243.968V34.066C244.268 33.562 244.67 33.178 245.174 32.914C245.69 32.65 246.266 32.518 246.902 32.518C248.978 32.518 250.016 33.724 250.016 36.136V41.5H247.766V36.244C247.766 35.56 247.634 35.062 247.37 34.75C247.118 34.438 246.722 34.282 246.182 34.282C245.522 34.282 244.994 34.492 244.598 34.912C244.214 35.32 244.022 35.866 244.022 36.55V41.5H241.772ZM256.333 41.68C254.005 41.68 252.841 40.528 252.841 38.224V34.39H251.149V32.698H252.841V30.07H255.091V32.698H257.755V34.39H255.091V38.098C255.091 38.674 255.217 39.106 255.469 39.394C255.721 39.682 256.129 39.826 256.693 39.826C256.861 39.826 257.035 39.808 257.215 39.772C257.395 39.724 257.581 39.676 257.773 39.628L258.115 41.284C257.899 41.404 257.623 41.5 257.287 41.572C256.963 41.644 256.645 41.68 256.333 41.68ZM263.459 41.68C262.463 41.68 261.605 41.494 260.885 41.122C260.165 40.75 259.607 40.222 259.211 39.538C258.827 38.854 258.635 38.044 258.635 37.108C258.635 36.196 258.821 35.398 259.193 34.714C259.577 34.03 260.099 33.496 260.759 33.112C261.431 32.716 262.193 32.518 263.045 32.518C264.293 32.518 265.277 32.914 265.997 33.706C266.729 34.498 267.095 35.578 267.095 36.946V37.612H260.795C260.963 39.184 261.863 39.97 263.495 39.97C263.987 39.97 264.479 39.898 264.971 39.754C265.463 39.598 265.913 39.358 266.321 39.034L266.951 40.546C266.531 40.894 266.003 41.17 265.367 41.374C264.731 41.578 264.095 41.68 263.459 41.68ZM263.135 34.048C262.475 34.048 261.941 34.252 261.533 34.66C261.125 35.068 260.879 35.62 260.795 36.316H265.223C265.175 35.584 264.971 35.026 264.611 34.642C264.263 34.246 263.771 34.048 263.135 34.048Z" fill="#E6E8F2"/>
</svg>
