<svg width="21" height="20" viewBox="0 0 21 20" fill="none" xmlns="http://www.w3.org/2000/svg">
<path fill-rule="evenodd" clip-rule="evenodd" d="M7.40181 6.27681C7.64589 6.03273 8.04161 6.03273 8.28569 6.27681L11.5669 9.55806C11.811 9.80214 11.811 10.1979 11.5669 10.4419L8.28569 13.7232C8.04161 13.9673 7.64589 13.9673 7.40181 13.7232C7.15773 13.4791 7.15773 13.0834 7.40181 12.8393L10.2411 10L7.40181 7.16069C7.15773 6.91661 7.15773 6.52089 7.40181 6.27681Z" fill="#50B2C0"/>
<path fill-rule="evenodd" clip-rule="evenodd" d="M1.75 10C1.75 9.65482 2.02982 9.375 2.375 9.375H11.125C11.4702 9.375 11.75 9.65482 11.75 10C11.75 10.3452 11.4702 10.625 11.125 10.625H2.375C2.02982 10.625 1.75 10.3452 1.75 10Z" fill="#50B2C0"/>
<path fill-rule="evenodd" clip-rule="evenodd" d="M10.5 3.125C10.5 2.77982 10.7798 2.5 11.125 2.5H15.5C15.8315 2.5 16.1495 2.6317 16.3839 2.86612C16.6183 3.10054 16.75 3.41848 16.75 3.75V16.25C16.75 16.5815 16.6183 16.8995 16.3839 17.1339C16.1495 17.3683 15.8315 17.5 15.5 17.5H11.125C10.7798 17.5 10.5 17.2202 10.5 16.875C10.5 16.5298 10.7798 16.25 11.125 16.25H15.5L15.5 3.75L11.125 3.75C10.7798 3.75 10.5 3.47018 10.5 3.125Z" fill="#50B2C0"/>
</svg>
