<svg width="32" height="32" viewBox="0 0 32 32" fill="none" xmlns="http://www.w3.org/2000/svg">
<path fill-rule="evenodd" clip-rule="evenodd" d="M10 9C7.79086 9 6 10.7909 6 13C6 15.2091 7.79086 17 10 17C12.2091 17 14 15.2091 14 13C14 10.7909 12.2091 9 10 9ZM4 13C4 9.68629 6.68629 7 10 7C13.3137 7 16 9.68629 16 13C16 16.3137 13.3137 19 10 19C6.68629 19 4 16.3137 4 13Z" fill="#50B2C0"/>
<path fill-rule="evenodd" clip-rule="evenodd" d="M18 10C18 9.44772 18.4477 9 19 9H31C31.5523 9 32 9.44772 32 10C32 10.5523 31.5523 11 31 11H19C18.4477 11 18 10.5523 18 10Z" fill="#50B2C0"/>
<path fill-rule="evenodd" clip-rule="evenodd" d="M18 16C18 15.4477 18.4477 15 19 15H31C31.5523 15 32 15.4477 32 16C32 16.5523 31.5523 17 31 17H19C18.4477 17 18 16.5523 18 16Z" fill="#50B2C0"/>
<path fill-rule="evenodd" clip-rule="evenodd" d="M21 22C21 21.4477 21.4477 21 22 21H31C31.5523 21 32 21.4477 32 22C32 22.5523 31.5523 23 31 23H22C21.4477 23 21 22.5523 21 22Z" fill="#50B2C0"/>
<path fill-rule="evenodd" clip-rule="evenodd" d="M10.0002 18.9844C8.44594 18.9844 6.93585 19.5017 5.70803 20.4547C4.48022 21.4078 3.60452 22.7424 3.21899 24.2481C3.082 24.7831 2.53723 25.1058 2.0022 24.9688C1.46718 24.8318 1.1445 24.287 1.28149 23.752C1.77717 21.8161 2.90307 20.1002 4.48169 18.8748C6.06031 17.6495 8.00186 16.9844 10.0002 16.9844C11.9986 16.9844 13.9402 17.6495 15.5188 18.8748C17.0974 20.1002 18.2233 21.8161 18.719 23.752C18.856 24.287 18.5333 24.8318 17.9983 24.9688C17.4633 25.1058 16.9185 24.7831 16.7815 24.2481C16.396 22.7424 15.5203 21.4078 14.2924 20.4547C13.0646 19.5017 11.5545 18.9844 10.0002 18.9844Z" fill="#50B2C0"/>
</svg>
