<svg width="33" height="32" viewBox="0 0 33 32" fill="none" xmlns="http://www.w3.org/2000/svg">
<path fill-rule="evenodd" clip-rule="evenodd" d="M12.5 11.5C12.5 10.9477 12.9477 10.5 13.5 10.5H19.5C20.0523 10.5 20.5 10.9477 20.5 11.5C20.5 12.0523 20.0523 12.5 19.5 12.5H13.5C12.9477 12.5 12.5 12.0523 12.5 11.5Z" fill="#50B2C0"/>
<path fill-rule="evenodd" clip-rule="evenodd" d="M18.7967 6.16403C19.5479 5.42079 20.562 5.00391 21.6187 5.00391C22.6755 5.00391 23.6896 5.42079 24.4408 6.16403C24.5302 6.25247 24.6021 6.35699 24.6528 6.4721L30.1153 18.8846C30.3377 19.3901 30.1083 19.9802 29.6028 20.2027C29.0973 20.4251 28.5072 20.1957 28.2847 19.6902L22.9069 7.47019C22.5467 7.17005 22.0912 7.00391 21.6187 7.00391C21.2176 7.00391 20.8287 7.12367 20.5 7.34351V20.9999C20.5 21.5522 20.0523 21.9999 19.5 21.9999C18.9477 21.9999 18.5 21.5522 18.5 20.9999V6.8749C18.5 6.60783 18.6068 6.35186 18.7967 6.16403Z" fill="#50B2C0"/>
<path fill-rule="evenodd" clip-rule="evenodd" d="M8.55911 6.16403C9.31033 5.42079 10.3244 5.00391 11.3812 5.00391C12.4379 5.00391 13.452 5.42079 14.2033 6.16403C14.3931 6.35186 14.4999 6.60783 14.4999 6.8749V20.9999C14.4999 21.5522 14.0522 21.9999 13.4999 21.9999C12.9476 21.9999 12.4999 21.5522 12.4999 20.9999V7.34351C12.1712 7.12367 11.7823 7.00391 11.3812 7.00391C10.9087 7.00391 10.4532 7.17005 10.093 7.47019L4.71522 19.6902C4.49276 20.1957 3.90263 20.4251 3.39713 20.2027C2.89163 19.9802 2.66219 19.3901 2.88465 18.8846L8.34715 6.4721C8.3978 6.35699 8.46972 6.25247 8.55911 6.16403Z" fill="#50B2C0"/>
<path fill-rule="evenodd" clip-rule="evenodd" d="M8.5 17C6.29086 17 4.5 18.7909 4.5 21C4.5 23.2091 6.29086 25 8.5 25C10.7091 25 12.5 23.2091 12.5 21C12.5 18.7909 10.7091 17 8.5 17ZM2.5 21C2.5 17.6863 5.18629 15 8.5 15C11.8137 15 14.5 17.6863 14.5 21C14.5 24.3137 11.8137 27 8.5 27C5.18629 27 2.5 24.3137 2.5 21Z" fill="#50B2C0"/>
<path fill-rule="evenodd" clip-rule="evenodd" d="M24.5 17C22.2909 17 20.5 18.7909 20.5 21C20.5 23.2091 22.2909 25 24.5 25C26.7091 25 28.5 23.2091 28.5 21C28.5 18.7909 26.7091 17 24.5 17ZM18.5 21C18.5 17.6863 21.1863 15 24.5 15C27.8137 15 30.5 17.6863 30.5 21C30.5 24.3137 27.8137 27 24.5 27C21.1863 27 18.5 24.3137 18.5 21Z" fill="#50B2C0"/>
</svg>
