<svg width="32" height="32" viewBox="0 0 32 32" fill="none" xmlns="http://www.w3.org/2000/svg">
<path fill-rule="evenodd" clip-rule="evenodd" d="M4 6C4 4.89543 4.89543 4 6 4H10C11.1046 4 12 4.89543 12 6V26C12 27.1046 11.1046 28 10 28H6C4.89543 28 4 27.1046 4 26V6ZM10 6H6V26H10V6Z" fill="#50B2C0"/>
<path fill-rule="evenodd" clip-rule="evenodd" d="M4 10C4 9.44772 4.44772 9 5 9H11C11.5523 9 12 9.44772 12 10C12 10.5523 11.5523 11 11 11H5C4.44772 11 4 10.5523 4 10Z" fill="#50B2C0"/>
<path fill-rule="evenodd" clip-rule="evenodd" d="M10 6C10 4.89543 10.8954 4 12 4H16C17.1046 4 18 4.89543 18 6V26C18 27.1046 17.1046 28 16 28H12C10.8954 28 10 27.1046 10 26V6ZM16 6H12V26H16V6Z" fill="#50B2C0"/>
<path fill-rule="evenodd" clip-rule="evenodd" d="M10 22C10 21.4477 10.4477 21 11 21H17C17.5523 21 18 21.4477 18 22C18 22.5523 17.5523 23 17 23H11C10.4477 23 10 22.5523 10 22Z" fill="#50B2C0"/>
<path fill-rule="evenodd" clip-rule="evenodd" d="M16.3818 7.2027C16.0946 6.13126 16.7304 5.02988 17.8018 4.7427L21.6818 3.7027C22.7533 3.41551 23.8546 4.05126 24.1418 5.1227L29.3418 24.5227C29.629 25.5941 28.9933 26.6955 27.9218 26.9827L24.0418 28.0227C22.9704 28.3099 21.869 27.6741 21.5818 26.6027L16.3818 7.2027ZM22.2018 5.6427L18.3218 6.6827L23.5218 26.0827L27.4018 25.0427L22.2018 5.6427Z" fill="#50B2C0"/>
<path fill-rule="evenodd" clip-rule="evenodd" d="M28.1652 20.5773C28.3089 21.1106 27.9931 21.6593 27.4598 21.803L21.6598 23.3655C21.1265 23.5091 20.5777 23.1933 20.4341 22.66C20.2904 22.1268 20.6063 21.578 21.1395 21.4343L26.9395 19.8718C27.4728 19.7282 28.0216 20.044 28.1652 20.5773Z" fill="#50B2C0"/>
<path fill-rule="evenodd" clip-rule="evenodd" d="M25.0661 8.99182C25.2087 9.52538 24.8918 10.0735 24.3582 10.2161L18.5582 11.7661C18.0247 11.9087 17.4765 11.5917 17.334 11.0582C17.1914 10.5246 17.5083 9.9765 18.0419 9.83391L23.8419 8.28391C24.3754 8.14132 24.9236 8.45826 25.0661 8.99182Z" fill="#50B2C0"/>
</svg>
