<svg width="18" height="26" viewBox="0 0 18 26" fill="none" xmlns="http://www.w3.org/2000/svg">
<path fill-rule="evenodd" clip-rule="evenodd" d="M0.585787 1.08579C0.960859 0.710714 1.46957 0.5 2 0.5H16C16.5304 0.5 17.0391 0.710714 17.4142 1.08579C17.7893 1.46086 18 1.96957 18 2.5V24.5C18 24.8635 17.8027 25.1984 17.4848 25.3746C17.1668 25.5509 16.7783 25.5407 16.47 25.348L9 20.6792L1.53 25.348C1.22173 25.5407 0.833186 25.5509 0.515231 25.3746C0.197277 25.1984 0 24.8635 0 24.5V2.5C0 1.96957 0.210714 1.46086 0.585787 1.08579ZM16 2.5H2L2 22.6958L8.47 18.652C8.79427 18.4493 9.20573 18.4493 9.53 18.652L16 22.6958V2.5Z" fill="#50B2C0"/>
</svg>
