<svg width="32" height="32" viewBox="0 0 32 32" fill="none" xmlns="http://www.w3.org/2000/svg">
<path fill-rule="evenodd" clip-rule="evenodd" d="M20 8C19.2044 8 18.4413 8.31607 17.8787 8.87868C17.3161 9.44129 17 10.2044 17 11C17 11.5523 16.5523 12 16 12C15.4477 12 15 11.5523 15 11C15 9.67392 15.5268 8.40215 16.4645 7.46447C17.4021 6.52678 18.6739 6 20 6H28C28.5304 6 29.0391 6.21071 29.4142 6.58579C29.7893 6.96086 30 7.46957 30 8V24C30 24.5304 29.7893 25.0391 29.4142 25.4142C29.0391 25.7893 28.5304 26 28 26H20C19.2044 26 18.4413 26.3161 17.8787 26.8787C17.3161 27.4413 17 28.2044 17 29C17 29.5523 16.5523 30 16 30C15.4477 30 15 29.5523 15 29C15 27.6739 15.5268 26.4021 16.4645 25.4645C17.4021 24.5268 18.6739 24 20 24H28L28 8L20 8Z" fill="#50B2C0"/>
<path fill-rule="evenodd" clip-rule="evenodd" d="M2.58579 6.58579C2.96086 6.21071 3.46957 6 4 6H12C13.3261 6 14.5979 6.52678 15.5355 7.46447C16.4732 8.40215 17 9.67392 17 11V29C17 29.5523 16.5523 30 16 30C15.4477 30 15 29.5523 15 29C15 28.2044 14.6839 27.4413 14.1213 26.8787C13.5587 26.3161 12.7956 26 12 26H4C3.46957 26 2.96086 25.7893 2.58579 25.4142C2.21071 25.0391 2 24.5304 2 24V8C2 7.46957 2.21071 6.96086 2.58579 6.58579ZM15 25V11C15 10.2044 14.6839 9.44129 14.1213 8.87868C13.5587 8.31607 12.7956 8 12 8L4 8V24H12C13.0881 24 14.1396 24.3547 15 25Z" fill="#50B2C0"/>
</svg>
