<svg width="24" height="24" viewBox="0 0 24 24" fill="#8381D9" xmlns="http://www.w3.org/2000/svg">
<path d="M22.4252 9.1313C22.3313 8.83597 22.1504 8.5759 21.9061 8.38518C21.6619 8.19446 21.3657 8.08201 21.0564 8.06255L15.5252 7.7063C15.517 7.70532 15.5092 7.7022 15.5026 7.69726C15.4961 7.69233 15.4909 7.68574 15.4877 7.67818L13.4252 2.47505C13.3138 2.18758 13.1181 1.94049 12.8638 1.76626C12.6095 1.59202 12.3084 1.49878 12.0002 1.49878C11.6919 1.49878 11.3908 1.59202 11.1365 1.76626C10.8822 1.94049 10.6865 2.18758 10.5752 2.47505L8.51266 7.67818C8.50942 7.68574 8.50426 7.69233 8.49767 7.69726C8.49109 7.7022 8.48332 7.70532 8.47516 7.7063L2.94391 8.06255C2.63463 8.08201 2.33845 8.19446 2.09419 8.38518C1.84994 8.5759 1.66902 8.83597 1.57516 9.1313C1.4776 9.43048 1.4719 9.75202 1.55879 10.0545C1.64568 10.3569 1.82118 10.6264 2.06266 10.8282L6.30016 14.3532C6.3098 14.3628 6.31664 14.3749 6.31994 14.3881C6.32324 14.4013 6.32288 14.4152 6.31891 14.4282L5.05328 19.4063C4.96702 19.7431 4.98341 20.098 5.10034 20.4254C5.21728 20.7529 5.42942 21.0378 5.70953 21.2438C5.98237 21.4396 6.30744 21.5496 6.64313 21.5596C6.97882 21.5696 7.30987 21.4793 7.5939 21.3001L11.9908 18.5157H12.0095L16.7439 21.5063C16.9868 21.6641 17.2699 21.7487 17.5595 21.7501C17.879 21.7458 18.1896 21.6444 18.4502 21.4594C18.7047 21.2749 18.8974 21.0175 19.0028 20.7213C19.1082 20.4251 19.1215 20.1039 19.0408 19.8001L17.6814 14.4282C17.6774 14.4152 17.6771 14.4013 17.6804 14.3881C17.6837 14.3749 17.6905 14.3628 17.7002 14.3532L21.9377 10.8282C22.1791 10.6264 22.3546 10.3569 22.4415 10.0545C22.5284 9.75202 22.5227 9.43048 22.4252 9.1313ZM20.9814 9.67505L16.7345 13.2001C16.509 13.3914 16.342 13.6423 16.2524 13.9242C16.1629 14.206 16.1545 14.5074 16.2283 14.7938L17.5877 20.1657C17.597 20.2032 17.597 20.2126 17.5877 20.2219C17.5814 20.234 17.5716 20.2438 17.5595 20.2501H17.5408L12.8158 17.2501C12.5721 17.095 12.2889 17.0137 12.0002 17.0157V3.00005C12.0095 3.00005 12.0189 3.00005 12.0283 3.02818L14.1002 8.2313C14.2058 8.50217 14.386 8.73754 14.62 8.91012C14.854 9.08269 15.1321 9.18539 15.422 9.2063L20.9627 9.56255C20.972 9.56255 20.9814 9.56255 20.9908 9.60005C21.0002 9.63755 20.9908 9.66568 20.9814 9.67505Z" fill="#8381D9"/>
</svg>
