<svg width="32" height="32" viewBox="0 0 32 32" fill="#50B2C0" xmlns="http://www.w3.org/2000/svg">
<path fill-rule="evenodd" clip-rule="evenodd" d="M16.0002 5C12.1342 5 9.00017 8.13401 9.00017 12C9.00017 15.866 12.1342 19 16.0002 19C19.8662 19 23.0002 15.866 23.0002 12C23.0002 8.13401 19.8662 5 16.0002 5ZM7.00017 12C7.00017 7.02944 11.0296 3 16.0002 3C20.9707 3 25.0002 7.02944 25.0002 12C25.0002 16.9706 20.9707 21 16.0002 21C11.0296 21 7.00017 16.9706 7.00017 12Z" fill="#50B2C0"/>
<path fill-rule="evenodd" clip-rule="evenodd" d="M16.0002 20.9988C13.718 20.9988 11.476 21.5996 9.49965 22.7407C7.52328 23.8819 5.88215 25.5233 4.74124 27.4998C4.46514 27.9781 3.85357 28.1421 3.37525 27.866C2.89693 27.5899 2.733 26.9783 3.0091 26.5C4.32553 24.2194 6.21914 22.3255 8.49957 21.0087C10.78 19.692 13.3669 18.9988 16.0002 18.9988C18.6335 18.9988 21.2203 19.692 23.5008 21.0087C25.7812 22.3255 27.6748 24.2194 28.9912 26.5C29.2673 26.9783 29.1034 27.5899 28.6251 27.866C28.1468 28.1421 27.5352 27.9781 27.2591 27.4998C26.1182 25.5233 24.4771 23.8819 22.5007 22.7407C20.5243 21.5996 18.2824 20.9988 16.0002 20.9988Z" fill="#50B2C0"/>
</svg>
